<svg xmlns="http://www.w3.org/2000/svg" viewBox="0 0 128 128">
  <defs>
    <linearGradient id="g" x1="0" x2="1" y1="0" y2="1">
      <stop offset="0%" stop-color="#16a34a"/>
      <stop offset="100%" stop-color="#22c55e"/>
    </linearGradient>
  </defs>
  <rect width="128" height="128" rx="24" fill="url(#g)"/>
  <g fill="#fff" transform="translate(16 16)">
    <path d="M32 72c-8 0-14-6-14-14 0-16 14-30 30-30 8 0 14 6 14 14 0 16-14 30-30 30zm0-8c12 0 22-10 22-22 0-3-3-6-6-6-12 0-22 10-22 22 0 3 3 6 6 6z" opacity=".9"/>
    <path d="M68 16h12a4 4 0 0 1 4 4v12h-8V28H68v-8z" opacity=".95"/>
    <path d="M24 80h48a8 8 0 0 0 8-8V52h-8v20a4 4 0 0 1-4 4H24v4z" opacity=".95"/>
  </g>
</svg>
